<svg xmlns="http://www.w3.org/2000/svg" width="48" height="46.982" viewBox="0 0 48 46.982">
  <g id="Group_17" data-name="Group 17" transform="translate(-310.5 -104.518)">
    <path id="Path_203" data-name="Path 203" d="M17.841,15.659l.176.177.178-.177a2.25,2.25,0,0,1,3.182,3.182L18.017,22.2l-3.358-3.359a2.25,2.25,0,0,1,3.182-3.182ZM12,14v2a6,6,0,0,0-6,6H4a8,8,0,0,1,7.75-8ZM12,1a6,6,0,0,1,.225,12L12,13a6,6,0,0,1-.225-12Zm0,2a4,4,0,1,0,4,4A4,4,0,0,0,12,3Z" transform="translate(321.482 116.409)" fill="#4657f2"/>
    <ellipse id="Ellipse_92" data-name="Ellipse 92" cx="23.5" cy="22.991" rx="23.5" ry="22.991" transform="translate(311 105.018)" fill="none" stroke="#e3e8ef" stroke-width="1"/>
  </g>
</svg>
